Coordinates
version=1
nRows=16
nColumns=63
inDegrees=yes

Units are S.I. units (second, meters, Newtons, ...)
If the header above contains a line with 'inDegrees', this indicates whether rotational values are in degrees (yes) or radians (no).

endheader
time	pelvis_tilt	pelvis_list	pelvis_rotation	pelvis_tx	pelvis_ty	pelvis_tz	hip_flexion_r	hip_adduction_r	hip_rotation_r	knee_angle_r	knee_angle_r_beta	ankle_angle_r	subtalar_angle_r	mtp_angle_r	hip_flexion_l	hip_adduction_l	hip_rotation_l	knee_angle_l	knee_angle_l_beta	ankle_angle_l	subtalar_angle_l	mtp_angle_l	L5_S1_Flex_Ext	L5_S1_Lat_Bending	L5_S1_axial_rotation	L4_L5_Flex_Ext	L4_L5_Lat_Bending	L4_L5_axial_rotation	L3_L4_Flex_Ext	L3_L4_Lat_Bending	L3_L4_axial_rotation	L2_L3_Flex_Ext	L2_L3_Lat_Bending	L2_L3_axial_rotation	L1_L2_Flex_Ext	L1_L2_Lat_Bending	L1_L2_axial_rotation	L1_T12_Flex_Ext	L1_T12_Lat_Bending	L1_T12_axial_rotation	Abs_r3	Abs_r2	Abs_r1	Abs_t1	Abs_t2	neck_flexion	neck_bending	neck_rotation	arm_flex_r	arm_add_r	arm_rot_r	elbow_flex_r	pro_sup_r	wrist_flex_r	wrist_dev_r	arm_flex_l	arm_add_l	arm_rot_l	elbow_flex_l	pro_sup_l	wrist_flex_l	wrist_dev_l
2.679245	-5.769143	-5.471840	86.990618	0.270772	0.420368	0.912626	1.683917	1.193292	-15.410081	6.759383	0.117973	23.343270	2.139599	0.000000	5.063084	0.042294	-5.987401	12.105077	0.211273	27.615945	14.593116	0.000000	-0.076299	-0.306469	3.659084	-0.141694	-0.407603	3.887777	-0.125351	-0.745148	3.887777	-0.087202	-0.745148	3.201699	-0.070851	-0.624951	2.973006	-0.043597	-0.474720	2.744313	-0.544993	-3.466833	20.350729	0.000000	0.000000	20.116513	6.793715	-37.367592	110.270735	-28.461397	74.425127	28.051480	65.208305	-11.600712	8.389742	9.207736	-21.249287	133.611990	1.444823	1.577992	-9.373111	-21.078781
2.698113	-5.711547	-5.132523	87.863594	0.267923	0.421149	0.913597	1.605938	0.993717	-16.750547	7.420697	0.129516	23.642375	2.645495	0.000000	5.152593	0.042664	-5.737460	12.719988	0.222006	27.832808	15.317135	0.000000	-0.086223	-0.292503	3.736692	-0.160125	-0.389029	3.970236	-0.141656	-0.711192	3.970236	-0.098545	-0.711192	3.269606	-0.080067	-0.596472	3.036063	-0.049268	-0.453087	2.802519	-0.615885	-3.308851	20.782362	0.000000	0.000000	19.152818	6.570717	-37.645557	110.256575	-29.294434	77.407698	25.955167	62.126260	-11.813841	7.435161	9.199816	-21.665410	132.965876	1.635467	1.703609	-9.270563	-20.129577
2.716981	-5.636291	-4.698861	88.744859	0.264897	0.421831	0.914291	1.507171	0.775455	-18.168426	8.253863	0.144057	24.145016	3.264911	0.000000	5.208905	0.029110	-5.461182	13.490343	0.235451	28.183518	15.972600	0.000000	-0.098183	-0.274731	3.771532	-0.182336	-0.365392	4.007253	-0.161305	-0.667980	4.007253	-0.112214	-0.667980	3.300090	-0.091173	-0.560231	3.064370	-0.056102	-0.425558	2.828649	-0.701314	-3.107807	20.976129	0.000000	0.000000	17.860774	6.514503	-37.701711	109.435641	-30.277461	78.606848	25.160886	59.942489	-11.998805	6.289336	8.940762	-22.015054	132.160953	1.793182	1.835170	-9.432336	-18.993511
2.735849	-5.568762	-4.170652	89.632476	0.261775	0.422388	0.914618	1.359021	0.541526	-19.428269	9.208290	0.160715	24.793604	3.670869	0.000000	5.193979	0.026776	-5.148218	14.356885	0.250575	28.630940	16.567778	0.000000	-0.111921	-0.256942	3.759865	-0.207848	-0.341732	3.994856	-0.183874	-0.624728	3.994856	-0.127914	-0.624728	3.289881	-0.103929	-0.523955	3.054890	-0.063951	-0.398003	2.819898	-0.799437	-2.906575	20.911238	0.000000	0.000000	16.330830	6.645216	-37.563524	107.845407	-31.343477	78.053727	25.660519	58.766468	-12.300985	5.000186	8.365864	-22.330404	131.045475	1.912581	1.956990	-9.672633	-17.722136
2.754717	-5.516882	-3.542791	90.545938	0.258567	0.422791	0.914600	1.148634	0.278837	-20.632488	10.288107	0.179561	25.592863	3.969485	0.000000	5.097565	0.040383	-4.765121	15.309671	0.267204	29.167200	17.091818	0.000000	-0.129791	-0.239829	3.692784	-0.241036	-0.318973	3.923583	-0.213234	-0.583121	3.923583	-0.148339	-0.583121	3.231186	-0.120524	-0.489060	3.000387	-0.074163	-0.371495	2.769588	-0.927087	-2.712996	20.538154	0.000000	0.000000	14.709654	6.971166	-37.238525	105.550329	-32.383077	75.754640	27.371387	58.635094	-12.645817	3.763108	7.429621	-22.633490	129.523945	1.994727	2.057471	-9.832473	-16.345183
2.773585	-5.502394	-2.821919	91.473470	0.255362	0.423040	0.914245	0.867847	-0.013140	-21.606614	11.459882	0.200013	26.474435	3.933535	0.000000	4.896258	0.092182	-4.300692	16.291707	0.284344	29.762139	17.529440	0.000000	-0.152110	-0.226467	3.571982	-0.282484	-0.301201	3.795231	-0.249902	-0.550632	3.795231	-0.173847	-0.550632	3.125484	-0.141250	-0.461812	2.902235	-0.086916	-0.350797	2.678986	-1.086509	-2.561840	19.866291	0.000000	0.000000	13.093740	7.472712	-36.741909	102.590722	-33.267391	71.645842	30.151188	59.615457	-12.920951	2.845741	6.111381	-22.956248	127.563210	2.042752	2.130417	-9.846700	-14.924442
2.792453	-5.548005	-2.018168	92.407891	0.252218	0.423152	0.913613	0.524384	-0.353581	-22.415504	12.717050	0.221954	27.441301	3.670526	0.000000	4.582409	0.202946	-3.753429	17.262024	0.301279	30.386226	17.874453	0.000000	-0.179993	-0.219544	3.405182	-0.334264	-0.291994	3.618006	-0.295710	-0.533800	3.618006	-0.205713	-0.533800	2.979534	-0.167141	-0.447694	2.766710	-0.102848	-0.340074	2.553886	-1.285669	-2.483527	18.938601	0.000000	0.000000	11.588015	8.114958	-36.128709	99.056878	-33.915871	65.756554	33.752302	61.695615	-13.104690	2.311791	4.448886	-23.322798	125.287734	2.062948	2.165905	-9.788205	-13.567625
2.811321	-5.652309	-1.163993	93.354562	0.249154	0.423138	0.912753	0.123255	-0.722952	-22.994114	13.995493	0.244267	28.438223	3.110527	0.000000	4.177133	0.368187	-3.108553	18.195415	0.317570	31.024236	18.116733	0.000000	-0.210833	-0.218413	3.202469	-0.391538	-0.290489	3.402623	-0.346378	-0.531049	3.402623	-0.240961	-0.531049	2.802160	-0.195780	-0.445388	2.602006	-0.120470	-0.338322	2.401852	-1.505959	-2.470730	17.811172	0.000000	0.000000	10.280936	8.872763	-35.416963	95.080863	-34.294180	58.255008	37.847048	64.798013	-13.188314	2.034231	2.506624	-23.734615	122.686284	2.056415	2.164099	-9.588372	-12.440349
2.830189	-5.820849	-0.296551	94.289368	0.246225	0.423036	0.911713	-0.320774	-1.114849	-23.307806	15.233233	0.265870	29.422479	2.252139	0.000000	3.697487	0.590804	-2.403894	19.048737	0.332463	31.639859	18.273183	0.000000	-0.242638	-0.223452	2.984573	-0.450603	-0.297191	3.171109	-0.398630	-0.543302	3.171109	-0.277311	-0.543302	2.611502	-0.225314	-0.455664	2.424966	-0.138643	-0.346127	2.238430	-1.733139	-2.527736	16.599302	0.000000	0.000000	9.252785	9.683665	-34.691088	90.812259	-34.438142	49.475510	42.158315	68.655680	-13.209430	1.938323	0.395234	-24.181997	120.046520	2.011204	2.119373	-9.387773	-11.658413
2.849057	-6.050900	0.535118	95.173863	0.243508	0.422885	0.910542	-0.772915	-1.524224	-23.394276	16.380445	0.285893	30.376019	1.201938	0.000000	3.175124	0.867692	-1.686521	19.784410	0.345303	32.193910	18.353544	0.000000	-0.272478	-0.234511	2.776055	-0.506019	-0.311899	2.949558	-0.447654	-0.570189	2.949558	-0.311415	-0.570189	2.429048	-0.253023	-0.478214	2.255545	-0.155694	-0.363257	2.082041	-1.946282	-2.652832	15.439585	0.000000	0.000000	8.589191	10.483919	-34.039520	86.366100	-34.386472	39.631346	46.456373	73.250196	-12.971258	1.985612	-1.757925	-24.651390	117.705816	1.915278	2.032880	-9.263452	-11.246128
2.867925	-6.331153	1.282299	95.994884	0.241033	0.422715	0.909297	-1.196583	-1.941981	-23.347978	17.395392	0.303607	31.288527	0.104895	0.000000	2.654579	1.186968	-1.020532	20.391322	0.355896	32.662917	18.425723	0.000000	-0.297472	-0.251172	2.596508	-0.552434	-0.334059	2.758790	-0.488716	-0.610699	2.758790	-0.339980	-0.610699	2.271945	-0.276232	-0.512190	2.109663	-0.169975	-0.389065	1.947381	-2.124810	-2.841306	14.441000	0.000000	0.000000	8.350402	11.205337	-33.570874	82.105896	-34.306765	30.424058	50.565876	76.661349	-12.784947	1.944131	-3.828404	-25.125659	116.107591	1.763773	1.909361	-9.330428	-11.092984
2.886792	-6.655859	1.910276	96.708817	0.238882	0.422542	0.908055	-1.550151	-2.374329	-23.212576	18.273576	0.318934	32.151480	-0.951439	0.000000	2.163591	1.549084	-0.429683	20.849797	0.363898	33.019082	18.467624	0.000000	-0.316446	-0.273864	2.468908	-0.587672	-0.364239	2.623215	-0.519889	-0.665873	2.623215	-0.361666	-0.665873	2.160295	-0.293852	-0.558463	2.005988	-0.180817	-0.424215	1.851681	-2.260341	-3.098003	13.731327	0.000000	0.000000	8.598940	11.792159	-33.374490	78.232177	-34.241392	22.460457	54.337895	78.968926	-12.495150	1.831581	-5.708885	-25.600361	115.334398	1.571200	1.783783	-9.455255	-11.120218
2.905660	-7.022731	2.375620	97.288780	0.237154	0.422358	0.906867	-1.799924	-2.812117	-22.922385	18.972629	0.331135	32.911035	-2.052936	0.000000	1.750013	1.952141	0.061402	21.159648	0.369306	33.237902	18.485479	0.000000	-0.325386	-0.305190	2.412070	-0.604275	-0.405903	2.562825	-0.534577	-0.742040	2.562825	-0.371884	-0.742040	2.110561	-0.302154	-0.622344	1.959807	-0.185926	-0.472740	1.809053	-2.324201	-3.452374	13.415210	0.000000	0.000000	9.343606	12.203393	-33.554124	74.800027	-34.330949	15.553336	57.718647	80.808619	-12.104903	1.843041	-7.308771	-26.095909	115.595563	1.359641	1.676317	-9.586868	-11.185105
2.924528	-7.425834	2.659442	97.711371	0.235887	0.422142	0.905790	-1.933356	-3.257337	-22.551269	19.473664	0.339880	33.551252	-3.092754	0.000000	1.435280	2.392949	0.423847	21.316043	0.372035	33.326213	18.495679	0.000000	-0.322844	-0.345181	2.430809	-0.599554	-0.459090	2.582734	-0.530401	-0.839272	2.582734	-0.368979	-0.839272	2.126958	-0.299793	-0.703892	1.975032	-0.184473	-0.534685	1.823107	-2.306043	-3.904751	13.519429	0.000000	0.000000	10.563577	12.449496	-34.038145	72.018164	-34.581705	10.300041	60.482884	82.255115	-11.775208	1.970421	-8.599441	-26.629548	116.809560	1.168612	1.599887	-9.669025	-11.141636
2.943396	-7.869114	2.744463	97.969309	0.235087	0.421863	0.904920	-1.925539	-3.728380	-22.181294	19.793018	0.345453	34.065008	-3.968626	0.000000	1.248685	2.879166	0.664513	21.318807	0.372083	33.283612	18.486922	0.000000	-0.308217	-0.395092	2.522504	-0.572389	-0.525472	2.680160	-0.506369	-0.960626	2.680160	-0.352261	-0.960626	2.207191	-0.286210	-0.805671	2.049534	-0.176115	-0.611997	1.891878	-2.201562	-4.469358	14.029409	0.000000	0.000000	12.180116	12.518239	-34.803944	69.988685	-34.995412	6.701700	62.443567	83.360446	-11.414591	2.303996	-9.564232	-27.221355	118.851265	1.037683	1.555261	-9.710445	-10.873827
2.962264	-8.344220	2.632274	98.063369	0.234760	0.421509	0.904305	-1.786388	-4.212573	-21.797126	19.911654	0.347524	34.410308	-4.710557	0.000000	1.202459	3.400481	0.772200	21.175915	0.369589	33.124220	18.471348	0.000000	-0.281560	-0.454546	2.676731	-0.522885	-0.604546	2.844026	-0.462575	-1.105183	2.844026	-0.321795	-1.105183	2.342139	-0.261456	-0.926910	2.174844	-0.160883	-0.704092	2.007548	-2.011153	-5.141915	14.887173	0.000000	0.000000	14.063663	12.442407	-35.800883	68.780960	-35.603149	4.694714	63.439852	84.057810	-11.175650	2.777708	-10.233017	-27.877371	121.502520	0.974151	1.536551	-9.757031	-10.390191
